<?xml version="1.0" standalone="no"?>
<!DOCTYPE svg PUBLIC "-//W3C//DTD SVG 20010904//EN"
 "http://www.w3.org/TR/2001/REC-SVG-20010904/DTD/svg10.dtd">
<svg version="1.0" xmlns="http://www.w3.org/2000/svg"
 width="512.000000pt" height="512.000000pt" viewBox="0 0 512.000000 512.000000"
 preserveAspectRatio="xMidYMid meet">
<metadata>
Created by potrace 1.11, written by Peter Selinger 2001-2013
</metadata>
<g transform="translate(0.000000,512.000000) scale(0.100000,-0.100000)"
fill="#000000" stroke="none">
<path d="M2390 5109 c-337 -52 -570 -146 -815 -330 -184 -139 -347 -327 -457
-529 -54 -99 -124 -280 -144 -375 -16 -70 -33 -168 -39 -219 -7 -66 -8 -299
-1 -332 2 -11 7 -45 10 -75 3 -30 8 -65 11 -79 3 -14 8 -41 11 -60 26 -158
117 -423 219 -635 132 -275 295 -502 508 -707 l102 -98 -85 -1 c-207 -4 -363
5 -475 25 -16 3 -48 8 -70 11 -86 13 -268 60 -429 111 -92 30 -172 54 -176 54
-10 0 -83 -107 -102 -150 -36 -79 -44 -108 -47 -158 -5 -94 40 -184 116 -232
63 -40 236 -93 438 -134 152 -31 163 -33 365 -55 90 -11 453 -11 528 -1 29 3
54 5 56 2 10 -10 -185 -166 -309 -247 -77 -51 -303 -166 -380 -194 -76 -28
-235 -82 -255 -86 -8 -2 -49 -13 -90 -24 -84 -22 -316 -66 -400 -76 -96 -11
-98 -12 -109 -66 -24 -112 -5 -256 42 -328 69 -104 173 -136 345 -106 642 112
1199 389 1595 792 59 60 129 136 156 170 l49 62 57 -69 c370 -459 966 -799
1635 -934 190 -38 243 -42 309 -22 141 42 205 154 197 346 -6 124 -11 138 -50
144 -17 3 -92 15 -166 26 -74 12 -151 26 -170 30 -19 5 -47 11 -61 14 -65 11
-227 59 -345 101 -165 60 -339 147 -479 239 -110 72 -285 210 -285 225 0 4 26
4 58 0 62 -8 521 -4 562 4 14 3 52 8 85 12 114 13 130 16 225 36 197 41 394
98 442 127 163 101 178 279 41 484 -24 38 -48 68 -52 68 -4 0 -27 -6 -52 -14
-220 -72 -422 -128 -509 -142 -14 -2 -35 -7 -48 -9 -12 -3 -44 -8 -70 -11 -26
-3 -58 -7 -72 -10 -14 -3 -115 -8 -225 -11 l-200 -5 31 28 c107 98 154 146
250 255 94 107 251 352 331 519 93 193 149 344 196 535 62 247 80 557 43 750
-68 359 -217 641 -465 885 -255 250 -568 406 -936 465 -65 10 -385 13 -445 4z"/>
</g>
</svg>
