<?xml version="1.0" encoding="UTF-8" standalone="no"?>
<svg width="76px" height="76px" viewBox="0 0 76 76" version="1.1" xmlns="http://www.w3.org/2000/svg" xmlns:xlink="http://www.w3.org/1999/xlink" xmlns:sketch="http://www.bohemiancoding.com/sketch/ns">
    <!-- Generator: Sketch 3.5.2 (25235) - http://www.bohemiancoding.com/sketch -->
    <title>github</title>
    <desc>Created with Sketch.</desc>
    <defs></defs>
    <g id="Page-1" stroke="none" stroke-width="1" fill="none" fill-rule="evenodd" sketch:type="MSPage">
        <g id="Ebene_x0020_1" sketch:type="MSLayerGroup" fill="#FFFFFF">
            <path d="M37.9976,3.625 C19.0592,3.625 3.7033,18.981 3.7033,37.9244 C3.7033,53.0769 13.5272,65.9333 27.1604,70.4685 C28.8756,70.7827 29.4152,69.7652 29.4152,68.8566 C29.4152,68.0416 29.4323,65.7661 29.4152,62.9016 C19.8761,64.9765 17.899,58.3853 17.899,58.3853 C16.3407,54.4213 14.0939,53.368 14.0939,53.368 C10.9801,51.2408 14.3272,51.2803 14.3272,51.2803 C17.7684,51.5235 19.5826,54.8169 19.5826,54.8169 C22.6421,60.0536 27.6082,58.5419 29.5611,57.6668 C29.8739,55.4496 30.762,53.9375 31.7417,53.0811 C24.1263,52.2144 16.1194,49.273 16.1194,36.1303 C16.1194,32.3839 17.4553,29.3238 19.6489,26.9278 C19.2951,26.0605 18.116,22.5725 19.9855,17.8487 C19.9855,17.8487 22.8646,16.9274 29.4152,21.3672 C32.1507,20.6064 35.0864,20.2269 38.002,20.2137 C40.9163,20.2269 43.8499,20.6064 46.5886,21.3672 C53.138,16.9292 56.0153,17.8487 56.0153,17.8487 C57.8829,22.5725 56.7063,26.0605 56.3543,26.9278 C58.5483,29.3238 59.8809,32.3839 59.8809,36.1303 C59.8809,49.3081 51.861,52.2059 44.2182,53.0519 C45.4496,54.1136 46.5679,56.1716 46.5679,59.371 L46.5679,68.8647 C46.5679,69.7817 47.1204,70.7973 48.8623,70.4642 C62.4808,65.921 72.297,53.0727 72.297,37.9244 C72.297,18.981 56.941,3.625 37.9976,3.625 L37.9976,3.625 Z M38,0.5001 C58.7106,0.5001 75.4999,17.2894 75.4999,38.0001 C75.4999,58.7107 58.7106,75.5 38,75.5 C17.2894,75.5 0.5002,58.7107 0.5002,38.0001 C0.5002,17.2894 17.2894,0.5001 38,0.5001 L38,0.5001 Z" id="Shape" sketch:type="MSShapeGroup"></path>
        </g>
    </g>
</svg>