<svg fill="none" height="168" viewBox="0 0 1054 168" width="1054" xmlns="http://www.w3.org/2000/svg" role="img" aria-labelledby="kt-text-logo-title">
    <title id="kt-text-logo-title">Kraken Tech logo</title>
    <g fill="#fff">
        <path d="m213.193 45.9103h28.284v31.6697l24.055-31.6697h32.878l-29.493 36.7472 30.098 47.8675h-33.725l-16.559-26.836-7.254 8.825v18.011h-28.284z" />
        <path d="m339.509 86.1629c6.769 0 10.879-3.0226 10.879-8.2197v-.2414c0-5.4406-4.229-8.0979-10.757-8.0979h-12.33v16.559zm-40.494-40.2526h41.34c14.989 0 24.539 3.7489 30.46 9.6723 5.078 5.0753 7.737 11.3619 7.737 20.0643v.2414c0 12.3295-6.406 20.9123-16.68 25.8677l19.703 28.769h-32.274l-15.957-24.176h-6.043v24.176h-28.286z" />
        <path d="m433.433 99.0969-7.737-20.5492-7.735 20.5492zm-21.517-53.7911h28.043l35.659 85.2192h-30.702l-4.473-11.362h-29.614l-4.352 11.362h-30.219z" />
        <path d="m474.29 45.9103h28.286v31.6697l24.052-31.6697h32.879l-29.493 36.7472 30.097 47.8675h-33.724l-16.559-26.836-7.252 8.825v18.011h-28.286z" />
        <path d="m560.111 45.9103h72.164v23.2086h-44.362v8.5828h36.99v20.4275h-36.99v9.1878h44.967v23.208h-72.769z" />
        <path d="m638.079 45.9103h26.473l30.097 37.3517v-37.3517h28.043v84.6147h-25.142l-31.428-39.0433v39.0433h-28.043z" />
    </g>
    <path d="m763.912 54.7345h-28.528v-8.8242h66.603v8.8242h-28.525v75.7905h-9.55z" fill="#f050f8" />
    <path d="m819.395 45.9103h61.165v8.7024h-51.615v28.8907h46.174v8.7046h-46.174v29.613h52.217v8.704h-61.767z" fill="#f050f8" />
    <path d="m891.802 88.4591v-.2414c0-23.9327 17.89-43.7578 42.79-43.7578 15.35 0 24.537 5.4406 33.001 13.419l-6.528 7.0106c-7.133-6.7693-15.111-11.6054-26.595-11.6054-18.735 0-32.757 15.2303-32.757 34.6923v.2413c0 19.5813 14.143 34.9333 32.757 34.9333 11.606 0 19.221-4.473 27.319-12.21l6.284 6.165c-8.822 8.946-18.494 14.87-33.844 14.87-24.418 0-42.427-19.221-42.427-43.5169z" fill="#f050f8" />
    <path d="m985.236 45.9103h9.551v37.5931h48.833v-37.5931h9.55v84.6147h-9.55v-38.0779h-48.833v38.0779h-9.551z" fill="#f050f8" />
    <path clip-rule="evenodd" d="m159.522 56.2936c7.798-2.2006 13.775-9.0003 14.991-15.8827 1.826-10.3485.133-21.482-9.446-30.1192-6.409-5.68639-17.973-9.457002-27.908-9.01992-6.956.23919-16.261 2.71597-22.739 7.7739-9.851-4.1729-20.6818-6.48224-32.0524-6.48224-43.2185 0-78.65014 33.34406-81.972807 75.71026-.167438 2.0658-.254412 4.1555-.254412 6.2647l.002173.124-.002173.1283c0 45.4123 36.814619 82.2253 82.227219 82.2253 45.4124 0 82.2254-36.813 82.2254-82.2253 0-10.018-1.79-19.6185-5.071-28.4971zm-9.725 62.2134c-.226-23.7592-9.359-38.4154-19.984-54.4395-9.833-14.828-8.563-31.2282-3.611-38.1889.35-.4262.8-.9111 1.339-1.4308 9.518 7.1368 17.294 16.4742 22.569 27.2554-3.379-.5262-6.773-2.1919-9.139-4.3751 0 0-5.626-3.8772-3.575.1087 2.177 4.3621 5.064 6.9672 11.416 8.822 1.218.3567 2.429.5763 3.619.6872 3.427 8.6154 5.31 18.0093 5.31 27.8447 0 12.1186-2.86 23.5713-7.944 33.7163zm7.452-67.7367c3.514-1.5939 5.539-4.2163 7.046-7.2868 1.626-3.6118 2.864-8.8394-1.29-16.1132-3.029-5.5124-9.913-10.3572-16.987-10.4202-4.951-.0435-9.287 1.4351-12.695 3.3031 10.216 8.0761 18.468 18.5268 23.926 30.5171zm-48.178-36.4862c-8.3-3.1465-17.3007-4.86875-26.7034-4.86875-2.4441 0-4.86.11742-7.2433.34357 15.3478 28.53408 24.3742 63.43728 24.3742 101.13008 0 7.233-.3327 14.361-.9785 21.363 3.568-2.44 6.624-4.98 8.163-6.976 2.44-3.153 3.669-6.197 4.991-12.047 1.974-8.948.976-16.5959-3.673-31.2956-3.427-10.7226-6.302-23.7784-7.385-33.6029-.554-5.4841-.109-12.8079 1.379-17.9963 1.078-3.7597 3.105-10.8313 7.076-16.0501z" fill="#f050f8" fill-rule="evenodd" />
    <path d="m91.2082 159.652c.9459-8.777 1.4373-17.757 1.4373-26.897 0-45.9518-12.3991-87.9178-32.8439-119.9028-30.6042 9.5918-52.80819 38.1715-52.80819 71.9396 0 41.6272 33.74639 75.3732 75.37319 75.3732 2.9921 0 5.9408-.174 8.8416-.513z" fill="#000" opacity=".01" />
    <path d="m32.1787 121.655c1.9374 5.286 6.1096 9.717 11.8151 11.793 10.269 3.739 21.6243-1.557 25.3583-11.824 1.6532-4.542 1.5406-9.293.0128-13.504z" fill="#fff" />
    <path clip-rule="evenodd" d="m39.1044 119.133c1.6113 2.964 4.2686 5.373 7.6869 6.619 7.4369 2.707 15.6609-1.128 18.3682-8.565.9372-2.575 1.0894-5.245.5806-7.748zm21.045 1.511c-.7742 2.125-3.1226 3.221-5.2493 2.447-2.1245-.775-3.2205-3.123-2.4464-5.248.7742-2.124 3.1227-3.22 5.2472-2.448 2.1245.774 3.2204 3.123 2.4485 5.249z" fill="#180048" fill-rule="evenodd" />
    <path d="m96.2406 149.614c3.4836-2.074 7.1784-4.59 11.0354-7.759 15.337-15.676 16.133-29.464 13.669-44.7817-1.217-7.7109-6.06-23.0717-8.737-27.649-.22-.3784-4.349-11.214-4.349-11.214-7.132-22.1866-2.051-46.0542 18.381-55.0545.161-.07176-36.1794 9.4135-27.6118 45.0452 2.3118 9.6113 5.9338 22.8824 9.3618 33.605 4.649 14.6975 5.647 22.347 3.672 31.293-1.322 5.852-2.55 8.896-4.99 12.049-1.973 2.558-4.956 5.045-8.1656 7.246-.5414 5.834-1.3003 11.579-2.2658 17.22z" fill="#c52ad1" />
    <path d="m137.046 45.7813c.389.4023.846.8285 1.38 1.283 4.569 3.8902 10.751 7.5456 17.936 6.2213 4.806-.8851 11.658-6.467 11.658-16.4611 0-13.9996-10.899-23.9828-22.868-23.9828-11.349 0-20.66 8.0675-21.595 19.1553.546-2.3702 1.427-4.4055 2.644-6.1191.35-.424.801-.9111 1.34-1.4286 0 0 0-.2436 2.792-2.3224 1.713-1.2743 2.992-1.8744 2.992-1.8744 3.405-1.8658 7.741-3.3466 12.693-3.3031 7.073.063 13.958 4.91 16.987 10.4203 4.153 7.2759 2.916 12.5034 1.29 16.1131-1.507 3.0705-3.532 5.6929-7.046 7.289 0 0-.822.4262-3.57.785-2.749.3588-3.569.1457-3.569.1457-3.379-.5262-6.773-2.1897-9.139-4.3729 0 0-3.303-2.2789-3.925-1.5483z" fill="#c52ad1" />
    <path d="m111.588 115.847c.498.603.956 1.233 1.376 1.892 2.638 4.069 5.012 10.581.181 13.749-2.869 1.864-7.092 1.203-9.644-1.352-2.514-2.523-3.258-6.587-2.04-9.805.987-2.575 3.383-5.515 6.243-6.145 1.555-.302 2.879.498 3.884 1.661z" fill="#9a0c9f" />
    <path d="m103.344 122.947c.247-1.629.893-3.155 1.876-4.44.674-1.005 1.814-2.014 3.023-1.696.876.204 1.47 1.065 1.813 1.904 1.255 3.134-.43 7.078-3.392 8.396-1.074.461-2.259.613-2.838-.672-.491-1.104-.659-2.32-.482-3.492z" fill="#180048" />
    <path d="m111.452 92.6516c.687.2826 1.348.6262 1.975 1.0242 3.996 2.318 8.854 6.7972 6.175 11.5862-1.609 2.872-5.543 4.122-8.798 3.059-3.257-1.065-5.634-4.142-5.975-7.417-.272-2.64.465-6.178 2.631-7.9437 1.183-.9611 2.657-.8241 3.992-.3087z" fill="#9a0c9f" />
    <path d="m108.532 103.285c-.726-1.587-1.053-3.3074-.953-5.021.003-1.3003.337-2.8007 1.586-3.2639.865-.3479 1.909.1 2.718.6306 2.985 1.9962 3.783 6.4323 1.998 9.3073-.672 1.078-1.635 1.883-2.892 1.111-1.083-.594-1.898-1.744-2.457-2.764z" fill="#180048" />
    <path d="m107.259 73.2788c.611.2457 1.209.5219 1.789.8307 3.564 1.8918 7.929 5.6559 5.661 9.9027-1.333 2.5507-4.765 3.7837-7.622 2.9661-2.86-.8176-5.062-3.4901-5.41-6.3061-.287-2.2985.306-5.4146 2.157-6.9976.935-.9068 2.194-.859 3.425-.3958z" fill="#9a0c9f" />
    <path d="m105.076 82.4401c-.652-1.2438-.952-2.6268-.869-4.0054.006-1.0286.208-2.2702 1.25-2.7073.735-.2914 1.55 0 2.181.3914 2.464 1.5548 3.186 5.0927 1.779 7.4455-.535.8742-1.296 1.5613-2.331.9699-.87-.3523-1.527-1.2591-2.01-2.0941z" fill="#180048" />
    <path d="m102.561 56.0488c.491.2762.965.5784 1.417.9089 2.821 2.0854 6.052 5.8452 3.515 9.1765-1.49 1.9962-4.61 2.6442-6.939 1.5896-2.3684-1.0547-3.8406-3.5749-3.7971-6.0604.05-1.9853.9807-4.5948 2.7747-5.7255.9594-.6176 2.0614-.3827 3.0294.1109z" fill="#9a0c9f" />
    <path d="m99.51 63.6424c-.4132-1.0981-.3827-2.305-.2066-3.4988.1544-.872.5132-1.9114 1.4006-2.1245.637-.1392 1.294.1892 1.8.598 1.886 1.5809 2.018 4.7013.544 6.4953-.576.6545-1.287 1.1568-2.118.5393-.678-.5154-1.1743-1.2178-1.42-2.0093z" fill="#180048" />
    <path d="m100.971 39.1187c.367.3718.704.7697 1.011 1.1894 1.968 2.6268 3.864 6.9041.593 9.2483-1.97 1.4003-4.9575 1.1785-6.8059-.398-1.8505-1.5743-2.4985-4.2838-1.7113-6.5257.6045-1.7896 2.2071-3.8989 4.1968-4.4708.9938-.2501 1.9744.2544 2.7164.9568z" fill="#9a0c9f" />
    <path d="m95.5185 45.0005c-.0218-1.2156.2674-2.4116.8459-3.4836.4131-.8067 1.0916-1.7418 2.0636-1.67.3392.0543.661.1826.9437.374.2805.1914.5132.4436.6803.7328 1.351 2.1202.585 5.1667-1.5088 6.5388-.7524.4849-1.6439.7632-2.2593-.0696-.5241-.6306-.7176-1.5809-.7654-2.4224z" fill="#180048" />
    <path d="m104.367 23.7193c.226.4437.42.9025.585 1.37 1.007 2.9095 1.431 7.2803-2.244 8.5132-2.22.7307-4.8884-.2913-6.1083-2.2462-1.2199-1.9571-1.0111-4.56.3806-6.3562 1.1068-1.4612 3.1877-2.9203 5.1707-2.8812 1.007.0391 1.749.7415 2.216 1.6004z" fill="#9a0c9f" />
    <path d="m97.6537 27.1268c.3501-1.0677.9546-2.0418 1.7635-2.8442.6128-.5959 1.4658-1.2199 2.3068-.9264.29.1327.54.3284.733.5741.192.2457.32.5328.37.835.62 2.1984-1.024 4.6839-3.2185 5.345-.8284.2587-1.6896.2414-1.9657-.648-.2871-.7111-.1805-1.6179.0109-2.3355z" fill="#180048" />
    <path d="m111.693 11.2687c.043.4197.054.8394.033 1.2612-.129 2.6138-1.166 6.2104-4.521 6.143-1.99-.0435-3.808-1.6069-4.171-3.4922-.365-1.8853.646-3.912 2.348-4.9645 1.349-.83933 3.497-1.41558 5.074-.85238.778.33271 1.159 1.08288 1.237 1.90488z" fill="#9a0c9f" />
    <path d="m105.271 12.1746c.553-.711 1.296-1.2677 2.153-1.6069.618-.2762 1.446-.5002 1.953-.0935.367.3044.441.8415.385 1.3199-.205 1.7853-2.142 3.1705-3.954 3.09-.661-.0326-1.307-.2609-1.285-1.009.076-.6219.337-1.2112.748-1.7005z" fill="#180048" />
    <path d="m122.486 3.3289c-.071.33271-.176.65671-.313.96984-.776 1.99621-4.312 3.86847-5.14 3.69233-1.625-.34792-2.573-2.21148-2.36-3.80323.129-.78283.492-1.50912 1.044-2.09406.552-.58495 1.27-1.00246 2.068-1.202511 1.272-.315305 3.127-.245721 4.177.619741.579.4523.64 1.14162.524 1.81789z" fill="#9a0c9f" />
    <path d="m116.884 2.19831c.587-.34357 1.285-.60234 2.031-.75455.541-.1283 1.255-.19571 1.6.05001.259.17831.185.46317.068.70454-.511.91113-2.294 1.56348-3.771 1.45258-.548-.05001-1.015-.18048-.82-.58059.166-.32618.474-.62844.892-.87199z" fill="#180048" />
</svg>
