<?xml version="1.0" encoding="UTF-8" standalone="no"?>
<svg width="50px" height="51px" viewBox="0 0 50 51" version="1.1" xmlns="http://www.w3.org/2000/svg" xmlns:xlink="http://www.w3.org/1999/xlink" xmlns:sketch="http://www.bohemiancoding.com/sketch/ns">
    <!-- Generator: Sketch 3.5.2 (25235) - http://www.bohemiancoding.com/sketch -->
    <title>Slice 1</title>
    <desc>Created with Sketch.</desc>
    <defs></defs>
    <g id="Page-1" stroke="none" stroke-width="1" fill="none" fill-rule="evenodd" sketch:type="MSPage">
        <g id="1455659024_20-rss" sketch:type="MSLayerGroup" fill="#FFFFFF">
            <path d="M0.428,27.085 C6.618,27.085 12.437,29.503 16.81,33.901 C21.191,38.299 23.603,44.157 23.603,50.393 L33.142,50.393 C33.142,32.28 18.466,17.545 0.428,17.545 L0.428,27.085 L0.428,27.085 Z M0.443,10.174 C22.504,10.174 40.453,28.221 40.453,50.405 L49.992,50.405 C49.992,22.96 27.763,0.635 0.443,0.635 L0.443,10.174 L0.443,10.174 Z M13.634,43.741 C13.634,47.389 10.675,50.348 7.027,50.348 C3.379,50.348 0.42,47.39 0.42,43.741 C0.42,40.091 3.378,37.134 7.026,37.134 C10.674,37.134 13.634,40.091 13.634,43.741 L13.634,43.741 Z" id="Shape" sketch:type="MSShapeGroup"></path>
        </g>
    </g>
</svg>