<?xml version="1.0" standalone="no"?>
<!DOCTYPE svg PUBLIC "-//W3C//DTD SVG 20010904//EN"
 "http://www.w3.org/TR/2001/REC-SVG-20010904/DTD/svg10.dtd">
<svg version="1.0" xmlns="http://www.w3.org/2000/svg"
 width="512.000000pt" height="512.000000pt" viewBox="0 0 512.000000 512.000000"
 preserveAspectRatio="xMidYMid meet">
<metadata>
Created by potrace 1.14, written by Peter Selinger 2001-2017
</metadata>
<g transform="translate(0.000000,512.000000) scale(0.100000,-0.100000)"
fill="#000000" stroke="none">
<path d="M3257 4560 c-42 -33 -52 -96 -21 -131 12 -14 11 -17 -10 -29 -27 -14
-24 -15 -151 30 -86 30 -226 67 -290 77 -16 2 -41 6 -55 9 -95 18 -362 24
-505 11 -303 -26 -626 -140 -895 -315 -134 -86 -197 -138 -320 -262 -143 -142
-161 -164 -264 -320 -150 -228 -246 -461 -296 -725 -56 -295 -41 -628 41 -909
12 -38 22 -76 24 -85 12 -59 115 -281 185 -401 97 -166 293 -392 450 -521 505
-411 1177 -553 1810 -382 246 66 499 193 710 356 91 70 294 277 363 369 220
294 360 651 395 1008 9 88 8 349 -1 410 -3 19 -9 58 -12 85 -4 28 -16 88 -27
135 -11 47 -21 90 -22 95 -1 6 -12 43 -25 82 -26 84 -26 86 -7 89 44 6 138 67
202 129 119 117 164 247 158 454 -9 289 -170 530 -435 650 -255 115 -558 129
-816 37 l-42 -15 5 28 c5 22 1 32 -17 45 -33 23 -100 21 -132 -4z m-617 -201
c124 -17 175 -27 262 -50 35 -9 36 -11 31 -43 -3 -21 1 -45 12 -65 16 -32 16
-34 -3 -55 -10 -11 -27 -35 -37 -52 -9 -16 -36 -40 -59 -52 -82 -44 -110 -121
-70 -199 20 -41 23 -57 18 -113 -5 -53 -11 -71 -35 -95 -82 -87 -62 -221 39
-254 36 -12 41 -18 55 -70 l16 -56 -30 -24 c-32 -25 -44 -48 -58 -112 -7 -33
-5 -47 16 -88 28 -57 57 -79 116 -89 40 -7 42 -9 57 -62 16 -53 15 -55 -4 -65
-54 -27 -83 -139 -56 -219 20 -62 99 -117 174 -121 9 0 38 -85 30 -85 -3 0 0
-9 6 -20 9 -18 7 -19 -25 -18 -41 1 -79 -28 -102 -82 -21 -49 -20 -147 2 -193
21 -46 87 -104 126 -112 16 -4 31 -11 34 -15 8 -13 -15 -139 -27 -146 -5 -4
-15 -1 -21 5 -13 13 -57 14 -89 2 -36 -14 -85 -65 -110 -113 -29 -55 -31 -156
-4 -207 19 -37 17 -42 -44 -84 -33 -23 -39 -22 -35 11 24 201 24 763 0 962 -2
14 -6 59 -10 100 -3 41 -8 86 -10 100 -2 14 -6 45 -10 70 -9 74 -26 182 -36
230 -5 25 -11 57 -13 71 -15 91 -65 300 -111 459 -92 316 -190 568 -333 852
-27 54 -47 99 -45 102 8 8 317 4 383 -5z m1494 -204 c88 -35 143 -73 201 -137
171 -190 172 -446 2 -601 -37 -33 -74 -54 -81 -45 -1 1 -26 48 -56 103 -118
224 -262 402 -485 599 l-40 35 60 26 c33 15 71 29 84 32 13 2 40 8 60 12 71
16 182 5 255 -24z m-542 -197 c53 -42 215 -201 253 -249 79 -98 235 -337 235
-359 0 -22 -123 26 -190 74 -118 85 -152 82 -101 -7 17 -31 48 -70 69 -88 45
-40 164 -96 223 -105 24 -4 49 -11 55 -16 10 -8 68 -174 79 -224 2 -11 8 -41
15 -69 65 -284 46 -644 -49 -942 -24 -76 -94 -243 -101 -243 -3 0 -6 15 -6 33
-1 48 -14 209 -18 216 -2 3 -6 29 -10 57 -8 68 -49 224 -81 310 -15 38 -29 78
-32 89 -24 79 -171 338 -326 577 -40 62 -87 142 -104 178 -111 239 -126 526
-38 718 26 56 51 92 66 92 4 0 31 -19 61 -42z"/>
</g>
</svg>
